<?xml version="1.0" encoding="utf-8"?>
<!-- Generator: Adobe Illustrator 23.0.2, SVG Export Plug-In . SVG Version: 6.00 Build 0)  -->
<svg version="1.1" id="Layer_1" xmlns="http://www.w3.org/2000/svg" xmlns:xlink="http://www.w3.org/1999/xlink" x="0px" y="0px"
	 viewBox="0 0 36.7 28.5" style="enable-background:new 0 0 36.7 28.5;" xml:space="preserve">
<style type="text/css">
	.st0{fill:none;}
	.st1{fill:#020202;}
</style>
<title>brokebothead_default</title>
<g id="Group_38">
	<g id="Group_30">
		<line id="Line_10" class="st0" x1="10.1" y1="12.4" x2="15" y2="16.5"/>
		
			<rect id="Rectangle_18" x="11.7" y="11.2" transform="matrix(0.6402 -0.7682 0.7682 0.6402 -6.5658 14.7908)" class="st1" width="1.6" height="6.4"/>
	</g>
	<g id="Group_31">
		<line id="Line_11" class="st0" x1="15" y1="12.4" x2="10.1" y2="16.5"/>
		
			<rect id="Rectangle_19" x="9.3" y="13.6" transform="matrix(0.7682 -0.6402 0.6402 0.7682 -6.322 11.3502)" class="st1" width="6.4" height="1.6"/>
	</g>
	<path id="Path_28" class="st1" d="M33.5,28H3.2V7.1h30.4V28z M4.8,26.3h27.1V8.7H4.8V26.3z"/>
	<g id="Group_32">
		<path id="Path_29" class="st1" d="M24.2,17.3c-1.6,0-2.9-1.3-2.9-2.9s1.3-2.9,2.9-2.9c1.6,0,2.9,1.3,2.9,2.9c0,0,0,0,0,0
			C27.1,16,25.8,17.3,24.2,17.3z M24.2,13.1c-0.7,0-1.3,0.6-1.3,1.3c0,0.7,0.6,1.3,1.3,1.3c0.7,0,1.3-0.6,1.3-1.3c0,0,0,0,0,0l0,0
			C25.5,13.7,24.9,13.1,24.2,13.1z"/>
	</g>
	<g id="Group_33">
		<path id="Path_30" class="st1" d="M23.4,5.8c-1.6,0-2.9-1.3-2.9-2.9S21.8,0,23.4,0c1.6,0,2.9,1.3,2.9,2.9
			C26.3,4.5,25,5.8,23.4,5.8C23.4,5.8,23.4,5.8,23.4,5.8z M23.4,1.6c-0.7,0-1.3,0.6-1.3,1.3s0.6,1.3,1.3,1.3s1.3-0.6,1.3-1.3l0,0
			C24.7,2.2,24.1,1.6,23.4,1.6C23.4,1.6,23.4,1.6,23.4,1.6z"/>
	</g>
	<g id="Group_34">
		<path id="Path_31" class="st1" d="M15.7,24.8l-2.4-2.4l-1.9,1.8L10.3,23l3-2.9l2.4,2.4l2.6-2.4l2.5,2.4l2.7-2.4l2.9,2.9l-1.1,1.2
			l-1.8-1.8l-2.7,2.3l-2.4-2.3L15.7,24.8z"/>
	</g>
	<g id="Group_35">
		<path id="Path_32" class="st1" d="M4.8,19.7H0v-6.1h4.8V19.7z M1.6,18.1h1.5v-2.9H1.6V18.1z"/>
	</g>
	<g id="Group_36">
		<path id="Path_33" class="st1" d="M36.7,19.7h-4.8v-6.1h4.8V19.7z M33.5,18.1H35v-2.9h-1.5V18.1z"/>
	</g>
	<g id="Group_37">
		<line id="Line_12" class="st0" x1="18.7" y1="7.9" x2="22.5" y2="4.3"/>
		
			<rect id="Rectangle_20" x="18" y="5.3" transform="matrix(0.7187 -0.6953 0.6953 0.7187 1.5726 16.0177)" class="st1" width="5.2" height="1.6"/>
	</g>
</g>
</svg>
